<svg width="4168" height="791" viewBox="0 0 4168 791" fill="none" xmlns="http://www.w3.org/2000/svg">
<path d="M28.2584 395.847C28.2584 340.84 73.3575 289.384 127.838 289.384C160.087 289.384 192.143 305.56 211.183 332.718L491.684 733.192C509.991 759.342 536.99 778.75 568.134 785.809C646.062 803.518 717.786 743.539 717.786 667.107V395.847C717.786 340.84 762.885 289.384 817.366 289.384C849.615 289.384 881.671 305.56 900.711 332.718L1181.21 733.192C1199.52 759.342 1226.52 778.75 1257.66 785.809C1335.59 803.518 1407.31 743.539 1407.31 667.107V395.722C1407.38 340.771 1452.46 289.398 1506.89 289.398C1539.14 289.398 1571.2 305.574 1590.24 332.732L1870.74 733.206C1889.05 759.356 1916.05 778.764 1947.19 785.823C2025.12 803.532 2096.84 743.553 2096.84 667.121V395.861C2096.84 340.854 2141.94 289.398 2196.42 289.398C2228.67 289.398 2260.73 305.574 2279.77 332.732L2560.27 733.206C2578.58 759.356 2605.57 778.764 2636.72 785.823C2714.65 803.532 2786.37 743.553 2786.37 667.121V395.861H2786.47C2786.47 340.854 2831.57 289.398 2886.05 289.398C2918.3 289.398 2950.35 305.574 2969.39 332.732L3249.87 733.192C3268.17 759.342 3295.17 778.75 3326.32 785.809C3404.24 803.518 3475.97 743.539 3475.97 667.107V395.847C3475.97 340.84 3521.07 289.384 3575.55 289.384C3607.8 289.384 3639.85 305.56 3658.89 332.718L3939.39 733.192C3957.7 759.342 3984.7 778.75 4015.84 785.809C4093.77 803.518 4165.5 743.539 4165.5 667.107V395.722H4139.77C4139.77 457.774 4094.67 502.323 4040.19 502.323C4007.94 502.323 3975.9 486.147 3956.84 458.989L3676.34 58.5148C3658.04 32.3654 3631.04 12.9571 3599.89 5.89823C3521.97 -11.811 3450.24 48.1682 3450.24 124.6V395.695C3450.24 457.746 3405.14 502.309 3350.66 502.309C3318.41 502.309 3286.37 486.133 3267.32 458.976L2986.82 58.5009C2968.51 32.3515 2941.51 12.9432 2910.37 5.88436C2832.44 -11.8249 2760.71 48.1545 2760.71 124.586V395.681H2760.62C2760.62 457.732 2715.52 502.296 2661.04 502.296C2628.79 502.296 2596.74 486.12 2577.69 458.962L2297.19 58.4871C2278.88 32.3377 2251.88 12.9294 2220.74 5.87059C2142.81 -11.8386 2071.09 48.1407 2071.09 124.572V395.667C2071.09 457.719 2025.99 502.282 1971.51 502.282C1939.26 502.282 1907.21 486.106 1888.16 458.948L1607.66 58.4733C1589.35 32.3239 1562.35 12.9156 1531.21 5.85675C1453.28 -11.8524 1381.55 48.1269 1381.55 124.558V395.653C1381.55 457.705 1336.45 502.268 1281.97 502.268C1249.72 502.268 1217.68 486.092 1198.62 458.934L918.124 58.4595C899.817 32.3101 872.817 12.9018 841.673 5.84291C763.746 -11.8662 692.023 48.1131 692.023 124.544V395.639C692.023 457.691 646.923 502.254 592.441 502.254C560.192 502.254 528.148 486.078 509.088 458.92L228.588 58.4457C210.281 32.2963 183.281 12.888 152.137 5.82907C74.2099 -11.88 2.48706 48.0993 2.48706 124.53V395.625" stroke="currentColor" stroke-width="8" stroke-linecap="round"/>
</svg>
