<svg width="512" height="69" viewBox="0 0 512 69" fill="none" xmlns="http://www.w3.org/2000/svg">
<path fill-rule="evenodd" clip-rule="evenodd" d="M114.906 0.0181198H113.8C107.984 0.00906372 103.264 4.71998 103.264 10.5361V34.059C103.264 38.7563 99.3822 42.5613 94.7619 42.5613C92.0169 42.5613 89.2764 41.1798 87.6502 38.8605L63.6245 4.54785C61.6315 1.69865 58.3882 0 54.8777 0C49.4012 0 44.4729 4.65656 44.4729 10.4048V34.0636C44.4729 38.7609 40.6226 42.5659 35.9706 42.5659C33.2165 42.5659 30.4805 41.1843 28.8544 38.8651L1.97043 0.471092C1.36346 -0.394081 0 0.0317078 0 1.09167V21.6068C0 22.6441 0.317078 23.6497 0.910492 24.5013L27.3641 62.2837C28.9268 64.5169 31.2325 66.1748 33.8914 66.7772C40.5456 68.2902 46.6698 63.1671 46.6698 56.6397V32.9945C46.6698 28.2972 50.4748 24.4922 55.1721 24.4922H55.1857C58.0168 24.4922 60.6712 25.8738 62.2973 28.193L86.323 62.5012C88.3206 65.3549 91.3963 67.049 95.0654 67.049C100.664 67.049 105.461 62.3879 105.461 56.6442V32.99C105.461 28.2927 109.266 24.4877 113.963 24.4877H114.901C115.49 24.4877 115.966 24.0121 115.966 23.4232V1.07808C115.966 0.489212 115.49 0.013588 114.901 0.013588L114.906 0.0181198ZM252.831 17.7203H246.951C246.353 17.7203 245.869 18.205 245.869 18.8029V65.9574C245.869 66.5553 246.353 67.04 246.951 67.04H252.831C253.429 67.04 253.913 66.5553 253.913 65.9574V18.8029C253.913 18.205 253.429 17.7203 252.831 17.7203ZM246.757 0.00453186H253.021C253.619 0.00453186 254.104 0.48922 254.104 1.08714V8.78768C254.104 9.3856 253.619 9.87028 253.021 9.87028H246.757C246.159 9.87028 245.674 9.3856 245.674 8.78768V1.08714C245.674 0.48922 246.159 0.00453186 246.757 0.00453186ZM288.023 16.3795C281.414 16.3795 276.626 18.6761 273.56 22.0326C272.577 23.0291 270.878 22.3316 270.878 20.9319V18.8029C270.878 18.205 270.393 17.7203 269.796 17.7203H264.016C263.418 17.7203 262.933 18.205 262.933 18.8029V65.9574C262.933 66.5553 263.418 67.04 264.016 67.04H269.8C270.398 67.04 270.883 66.5553 270.883 65.9574V36.1065C270.883 25.7606 272.894 23.464 283.91 23.464C294.926 23.464 296.743 25.2849 296.743 35.6263V65.9528C296.743 66.5508 297.228 67.0354 297.825 67.0354H303.705C304.303 67.0354 304.788 66.5508 304.788 65.9528V33.4203C304.788 21.6385 298.084 16.3704 288.028 16.3704V16.3795H288.023ZM348.087 22.703C349.07 23.6995 350.769 23.002 350.769 21.6023V1.09166C350.769 0.493736 351.254 0.00906372 351.852 0.00906372H357.636C358.234 0.00906372 358.719 0.493736 358.719 1.09166V65.9619C358.719 66.5598 358.234 67.0445 357.636 67.0445H351.852C351.254 67.0445 350.769 66.5598 350.769 65.9619V63.1625C350.828 61.7311 349.093 61.0426 348.087 62.0618C345.311 65.5089 339.948 68.3808 332.763 68.3808C320.125 68.3808 311.886 59.3802 311.886 42.6202C311.886 24.9044 321.077 16.3795 333.049 16.3795C340.233 16.3795 345.406 19.2559 348.087 22.703ZM320.596 42.4254C320.596 58.6102 322.608 61.0064 335.73 61.0064C348.758 61.0064 350.769 58.6102 350.769 42.4254C350.769 26.2407 348.853 23.7494 335.73 23.7494C322.608 23.7494 320.596 26.2407 320.596 42.4254ZM392.339 39.3679L382.862 37.7417C375.868 36.496 374.623 34.3897 374.623 30.7478C374.718 25.7651 376.634 23.2783 385.924 23.2783C394.626 23.2783 397.412 25.8512 398.01 31.4046C398.069 31.9527 398.531 32.374 399.083 32.374H404.832C405.448 32.374 405.95 31.8576 405.914 31.237C405.357 21.7019 396.628 16.375 386.214 16.375C374.528 16.375 366.773 22.5988 366.773 31.5088C366.773 39.6487 373.096 43.1955 380.661 44.6314L391.102 46.5475C396.85 47.6029 398.766 49.519 398.766 53.1564C398.766 58.9997 396.755 61.491 386.889 61.491C377.023 61.491 374.297 58.6464 373.662 52.88C373.604 52.3319 373.142 51.9152 372.589 51.9152H366.804C366.197 51.9152 365.704 52.418 365.717 53.025C365.994 63.2984 375.307 68.3898 386.405 68.3898C398.472 68.3898 406.802 62.166 406.802 52.7758C406.802 44.5408 400.478 40.8038 392.339 39.3679ZM434.202 61.3008C444.928 61.3008 446.939 59.0042 446.939 48.6583V18.8165C446.939 18.2186 447.424 17.7339 448.022 17.7339H453.902C454.5 17.7339 454.984 18.2186 454.984 18.8165V65.9709C454.984 66.5689 454.5 67.0536 453.902 67.0536H448.022C447.424 67.0536 446.939 66.5689 446.939 65.9709V63.9145C446.917 62.4514 445.399 61.7221 444.353 62.7458C441.291 66.0978 436.503 68.3943 430.084 68.3943C420.219 68.3943 413.515 63.1263 413.515 51.3445V18.812C413.515 18.214 413.999 17.7294 414.597 17.7294H420.477C421.075 17.7294 421.559 18.214 421.559 18.812V49.1385C421.559 59.4799 423.475 61.3008 434.202 61.3008ZM502.03 17.7203V11.3968C502.03 8.90999 504.046 6.89424 506.533 6.89424H510.908C511.506 6.89424 511.991 6.40957 511.991 5.81165V1.08261C511.991 0.484688 511.506 0 510.908 0H507.873C499.253 0 493.985 4.78793 493.985 13.0275V17.7203H487.612C481.963 17.7293 477.529 18.5039 474.571 22.0326C473.484 23.0608 471.984 22.2908 471.984 20.796V18.8074C471.984 18.2095 471.5 17.7248 470.902 17.7248H465.022C464.424 17.7248 463.94 18.2095 463.94 18.8074V65.9619C463.94 66.5598 464.424 67.0445 465.022 67.0445H470.902C471.5 67.0445 471.984 66.5598 471.984 65.9619V36.4009C471.984 26.6303 474.476 24.3337 485.202 24.3337H493.985V65.9664C493.985 66.5643 494.47 67.049 495.068 67.049H500.947C501.545 67.049 502.03 66.5643 502.03 65.9664V24.3337H510.917C511.515 24.3337 512 23.849 512 23.2511V18.812C512 18.214 511.515 17.7294 510.917 17.7294H502.03V17.7203ZM213.133 54.7418C213.341 55.6069 214.116 56.2184 215.004 56.2184H215.008C215.891 56.2184 216.661 55.616 216.874 54.7599L230.359 0.824417C230.482 0.339729 230.916 0 231.415 0H238.146C238.866 0 239.392 0.679466 239.21 1.37704L222.247 66.2563C222.124 66.7138 221.712 67.0354 221.236 67.0354H209.228C208.743 67.0354 208.322 66.7048 208.2 66.2382L194.108 11.9675C193.89 11.1205 193.125 10.5271 192.246 10.5271H192.124C191.25 10.5271 190.484 11.1205 190.262 11.9675L176.175 66.2382C176.052 66.7093 175.631 67.0354 175.146 67.0354H163.138C162.663 67.0354 162.246 66.7138 162.128 66.2563L145.164 1.37704C144.983 0.679466 145.508 0 146.229 0H152.96C153.458 0 153.893 0.339729 154.015 0.824417L167.496 54.7599C167.709 55.616 168.474 56.2184 169.362 56.2184C170.25 56.2184 171.024 55.6069 171.233 54.7418L184.192 0.833481C184.31 0.344269 184.745 0 185.248 0H199.122C199.625 0 200.06 0.344269 200.178 0.833481L213.133 54.7418Z" fill="#0B100F"/>
</svg>
